<svg viewBox="0 0 45.618 14" x="0" y="0" fill="none" xmlns="http://www.w3.org/2000/svg"><g id="list tools" data-node-id="1:2039" xmlns="http://www.w3.org/2000/svg"><g id="Button_6" data-node-id="1:2040"><g id="olist" data-node-id="I1:2040;3913:2784"><g id="icon_12" data-node-id="I1:2040;3913:2784;11:432"><path id="Union" data-node-id="I1:2040;3913:2784;11:432;567:37" d="M3.118,13v0.5h0.809l-0.362,-0.724zM3.118,11l0.447,0.224l0.362,-0.724h-0.809zM2.618,12l-0.447,-0.224l-0.112,0.224l0.112,0.224zM2.118,1h0.5v-0.5h-0.5zM1.618,8l-0.447,-0.224l-0.362,0.724h0.809zM2.618,6l0.447,0.224l0.362,-0.724h-0.809zM5.618,2.5h9v-1h-9zM5.618,7.5h9v-1h-9zM5.618,12.5h9v-1h-9zM0.618,13.5h2.5v-1h-2.5zM3.118,10.5h-2.5v1h2.5zM3.565,12.776l-0.5,-1l-0.894,0.448l0.5,1zM3.065,12.224l0.5,-1l-0.894,-0.448l-0.5,1zM0.618,1.5h1.5v-1h-1.5zM0.618,3.5h1.5v-1h-1.5zM2.118,3.5h1.5v-1h-1.5zM1.618,1v2h1v-2zM3.618,7.5h-2v1h2zM2.065,8.224l1,-2l-0.894,-0.448l-1,2zM2.618,5.5h-2v1h2z" fill="#F6F6F7"/></g></g></g><g id="Button_7" data-node-id="1:2041"><g id="ulist" data-node-id="I1:2041;3913:2784"><g id="icon_13" data-node-id="I1:2041;3913:2784;11:392"><path id="icon_14" data-node-id="I1:2041;3913:2784;11:392;8:1" d="M36.618,2h9M36.618,12h9M36.618,7h9M33.718,12c0,0.332 -0.27,0.602 -0.6,0.602c-0.33,0 -0.6,-0.27 -0.6,-0.602c0,-0.332 0.27,-0.601 0.6,-0.601c0.33,0 0.6,0.269 0.6,0.601zM33.718,2c0,0.332 -0.27,0.602 -0.6,0.602c-0.33,0 -0.6,-0.27 -0.6,-0.602c0,-0.332 0.27,-0.602 0.6,-0.602c0.33,0 0.6,0.27 0.6,0.602zM33.718,7c0,0.332 -0.27,0.602 -0.6,0.602c-0.33,0 -0.6,-0.27 -0.6,-0.602c0,-0.332 0.27,-0.602 0.6,-0.602c0.33,0 0.6,0.27 0.6,0.602z" stroke="#F6F6F7" stroke-width="1.2"/></g></g></g></g></svg>