<svg viewBox="0 0 103.68 15.639" x="0" y="0" fill="none" xmlns="http://www.w3.org/2000/svg"><g id="text style tools" data-node-id="1:2030" xmlns="http://www.w3.org/2000/svg"><g id="Button" data-node-id="1:2031"><g id="bold" data-node-id="I1:2031;3913:2784"><g id="icon_3" data-node-id="I1:2031;3913:2784;11:551"><path id="icon_4" data-node-id="I1:2031;3913:2784;11:551;1:1362" d="M5.389,12.039c2.323,0 3.764,-1.207 3.764,-3.116c0,-1.403 -1.049,-2.489 -2.489,-2.595v-0.136c1.116,-0.166 1.969,-1.169 1.969,-2.323c0,-1.682 -1.26,-2.716 -3.373,-2.716h-4.76v10.886zM2.778,2.896h1.902c1.086,0 1.712,0.52 1.712,1.388c0,0.875 -0.671,1.38 -1.901,1.38h-1.713zM2.778,10.296v-3.093h1.977c1.343,0 2.075,0.528 2.075,1.524c0,1.019 -0.71,1.569 -2.022,1.569z" fill="#F6F6F7"/></g></g></g><g id="Button_2" data-node-id="1:2032"><g id="italic" data-node-id="I1:2032;3913:2784"><g id="icon_5" data-node-id="I1:2032;3913:2784;11:445"><path id="icon_6" data-node-id="I1:2032;3913:2784;11:445;1:1072" d="M33.61,12.039h1.298l1.727,-8.132h-1.297zM36.484,2.337c0.498,0 0.906,-0.407 0.906,-0.905c0,-0.498 -0.408,-0.905 -0.906,-0.905c-0.498,0 -0.905,0.407 -0.905,0.905c0,0.498 0.407,0.905 0.905,0.905z" fill="#F6F6F7"/></g></g></g><g id="Button_3" data-node-id="1:2033"><g id="underline" data-node-id="I1:2033;3913:2784"><g id="icon_7" data-node-id="I1:2033;3913:2784;11:391"><path id="icon_8" data-node-id="I1:2033;3913:2784;11:391;567:31" fill-rule="evenodd" clip-rule="evenodd" d="M62.35,1.153h1.358v7.054c0,1.644 1.079,2.836 2.965,2.836c1.886,0 2.964,-1.192 2.964,-2.836v-7.054h1.358v7.144c0,2.324 -1.622,3.998 -4.322,3.998c-2.701,0 -4.323,-1.674 -4.323,-3.998zM61.18,15.139h11v-1.2h-11z" fill="#F6F6F7"/></g></g></g><g id="Button_4" data-node-id="1:2034"><g id="strikethrough" data-node-id="I1:2034;3913:2784"><g id="icon_9" data-node-id="I1:2034;3913:2784;11:404"><path id="icon_10" data-node-id="I1:2034;3913:2784;11:404;565:101" fill-rule="evenodd" clip-rule="evenodd" d="M97.746,1.773c-1.5,0 -2.493,0.75 -2.493,1.891c0,0.607 0.292,1.036 0.979,1.375h-2.148c-0.187,-0.38 -0.276,-0.82 -0.276,-1.328c0,-1.914 1.602,-3.211 3.985,-3.211c2.179,0 3.804,1.297 3.921,3.117h-1.414c-0.195,-1.156 -1.148,-1.844 -2.554,-1.844zM97.668,12.305c-2.391,0 -4.04,-1.266 -4.188,-3.211h1.422c0.172,1.179 1.297,1.929 2.898,1.929c1.516,0 2.633,-0.82 2.633,-1.937c0,-0.409 -0.127,-0.755 -0.394,-1.047h1.732c0.073,0.266 0.107,0.557 0.107,0.875c0,2.07 -1.632,3.391 -4.21,3.391zM92.18,7.139h11v-1.2h-11z" fill="#F6F6F7"/></g></g></g></g></svg>