<svg version="1.1" id="Layer_1" xmlns="http://www.w3.org/2000/svg" xmlns:xlink="http://www.w3.org/1999/xlink" x="0px" y="0px"
	 width="100%" viewBox="0 0 229 233" enable-background="new 0 0 229 233" xml:space="preserve">
<path fill="#010101" opacity="1.000000" stroke="none" 
	d="
M151.000000,234.000000 
	C100.666672,234.000000 50.833340,234.000000 1.000007,234.000000 
	C1.000005,156.333344 1.000005,78.666679 1.000002,1.000017 
	C77.333321,1.000011 153.666641,1.000011 229.999969,1.000006 
	C229.999985,78.666649 229.999985,156.333298 230.000000,233.999969 
	C203.833328,234.000000 177.666672,234.000000 151.000000,234.000000 
M141.183533,176.440979 
	C144.719452,168.067642 142.712646,160.768265 136.566467,154.527222 
	C124.592926,142.368866 100.792938,142.579987 88.948868,154.814163 
	C81.137428,162.882889 80.847008,173.916290 88.451225,182.160843 
	C102.479111,197.369995 132.389053,194.229065 141.183533,176.440979 
M60.633339,142.176529 
	C64.846581,138.059937 69.953415,134.518326 73.060326,129.689850 
	C77.544983,122.720215 74.289314,115.849640 66.478867,113.148643 
	C53.672760,108.720055 32.710953,117.997429 27.469843,130.413452 
	C24.334558,137.840836 27.217680,144.048050 35.018635,146.337082 
	C43.900322,148.943268 52.060326,146.442368 60.633339,142.176529 
M150.903275,123.586533 
	C151.081375,137.210327 173.054352,149.960083 188.570236,146.938248 
	C199.697403,144.771133 203.190628,135.466370 195.976028,126.436043 
	C187.507568,115.836273 176.116608,111.171516 162.579239,112.441780 
	C155.746994,113.082878 152.590637,116.196899 150.903275,123.586533 
M128.062897,102.533249 
	C121.226074,94.700500 109.930458,93.119530 101.534973,98.820312 
	C93.860992,104.031174 93.566643,113.497437 101.186256,118.789429 
	C107.881592,123.439499 115.152802,123.709900 122.452866,120.112511 
	C129.589951,116.595436 131.662109,110.543022 128.062897,102.533249 
M73.815651,77.322762 
	C69.737724,79.957848 64.902184,81.909660 61.762512,85.390938 
	C57.248802,90.395744 60.070618,96.877480 66.822205,96.987968 
	C71.522202,97.064880 76.594215,95.528702 80.897850,93.460220 
	C86.511238,90.762230 89.000175,85.165199 87.596031,81.430405 
	C86.130424,77.532120 81.518356,76.017494 73.815651,77.322762 
M166.060394,90.415894 
	C164.114883,81.243454 152.011368,74.287437 143.120789,77.232277 
	C137.885056,78.966515 136.392914,83.484253 139.438156,88.382118 
	C142.962540,94.050583 152.344345,98.366302 158.985626,97.221779 
	C162.440125,96.626442 165.386475,95.215431 166.060394,90.415894 
M103.180176,72.835342 
	C107.419243,79.169777 114.977837,80.590858 120.285896,76.007790 
	C123.169334,73.518188 123.942215,70.516380 122.001335,67.107079 
	C119.885223,63.389957 114.368698,61.519554 109.632591,62.993759 
	C105.250885,64.357651 102.272926,66.899551 103.180176,72.835342 
M83.425537,54.871227 
	C82.632011,57.309303 81.838493,59.747383 81.044968,62.185463 
	C83.601685,62.816425 86.296005,64.259590 88.677483,63.856140 
	C91.196144,63.429443 93.876190,61.669102 95.665581,59.733212 
	C98.729645,56.418262 96.871346,52.091164 92.387863,52.135391 
	C89.587456,52.163010 86.801186,53.624771 83.425537,54.871227 
M141.302521,54.107517 
	C140.712158,53.798424 140.140533,53.444786 139.528473,53.187267 
	C134.474167,51.060715 129.993805,51.826542 128.967743,54.974083 
	C127.901283,58.245499 131.250641,62.443005 136.053680,63.851879 
	C136.213272,63.898693 136.391129,63.987179 136.538788,63.955406 
	C139.279739,63.365578 143.005371,63.651684 144.533340,61.957878 
	C147.078217,59.136806 144.192856,56.573154 141.302521,54.107517 
M107.142738,47.292244 
	C106.035545,50.816025 107.962875,53.088398 110.942665,53.448002 
	C113.210175,53.721645 115.988304,52.665741 117.931793,51.322483 
	C118.731056,50.770077 118.475395,46.631012 117.769760,46.334236 
	C115.303993,45.297195 112.442627,45.079674 109.707939,44.888126 
	C109.022980,44.840149 108.249619,46.054123 107.142738,47.292244 
z"/>
<path fill="#F9F9F9" opacity="1.000000" stroke="none" 
	d="
M141.013184,176.783325 
	C132.389053,194.229065 102.479111,197.369995 88.451225,182.160843 
	C80.847008,173.916290 81.137428,162.882889 88.948868,154.814163 
	C100.792938,142.579987 124.592926,142.368866 136.566467,154.527222 
	C142.712646,160.768265 144.719452,168.067642 141.013184,176.783325 
z"/>
<path fill="#F8F8F8" opacity="1.000000" stroke="none" 
	d="
M60.303570,142.347168 
	C52.060326,146.442368 43.900322,148.943268 35.018635,146.337082 
	C27.217680,144.048050 24.334558,137.840836 27.469843,130.413452 
	C32.710953,117.997429 53.672760,108.720055 66.478867,113.148643 
	C74.289314,115.849640 77.544983,122.720215 73.060326,129.689850 
	C69.953415,134.518326 64.846581,138.059937 60.303570,142.347168 
z"/>
<path fill="#F8F8F8" opacity="1.000000" stroke="none" 
	d="
M150.910431,123.175415 
	C152.590637,116.196899 155.746994,113.082878 162.579239,112.441780 
	C176.116608,111.171516 187.507568,115.836273 195.976028,126.436043 
	C203.190628,135.466370 199.697403,144.771133 188.570236,146.938248 
	C173.054352,149.960083 151.081375,137.210327 150.910431,123.175415 
z"/>
<path fill="#F6F6F6" opacity="1.000000" stroke="none" 
	d="
M128.250549,102.843094 
	C131.662109,110.543022 129.589951,116.595436 122.452866,120.112511 
	C115.152802,123.709900 107.881592,123.439499 101.186256,118.789429 
	C93.566643,113.497437 93.860992,104.031174 101.534973,98.820312 
	C109.930458,93.119530 121.226074,94.700500 128.250549,102.843094 
z"/>
<path fill="#F2F2F2" opacity="1.000000" stroke="none" 
	d="
M74.202515,77.240868 
	C81.518356,76.017494 86.130424,77.532120 87.596031,81.430405 
	C89.000175,85.165199 86.511238,90.762230 80.897850,93.460220 
	C76.594215,95.528702 71.522202,97.064880 66.822205,96.987968 
	C60.070618,96.877480 57.248802,90.395744 61.762512,85.390938 
	C64.902184,81.909660 69.737724,79.957848 74.202515,77.240868 
z"/>
<path fill="#F2F2F2" opacity="1.000000" stroke="none" 
	d="
M166.034210,90.811127 
	C165.386475,95.215431 162.440125,96.626442 158.985626,97.221779 
	C152.344345,98.366302 142.962540,94.050583 139.438156,88.382118 
	C136.392914,83.484253 137.885056,78.966515 143.120789,77.232277 
	C152.011368,74.287437 164.114883,81.243454 166.034210,90.811127 
z"/>
<path fill="#EFEFEF" opacity="1.000000" stroke="none" 
	d="
M103.087456,72.452209 
	C102.272926,66.899551 105.250885,64.357651 109.632591,62.993759 
	C114.368698,61.519554 119.885223,63.389957 122.001335,67.107079 
	C123.942215,70.516380 123.169334,73.518188 120.285896,76.007790 
	C114.977837,80.590858 107.419243,79.169777 103.087456,72.452209 
z"/>
<path fill="#E8E8E8" opacity="1.000000" stroke="none" 
	d="
M83.717056,54.657101 
	C86.801186,53.624771 89.587456,52.163010 92.387863,52.135391 
	C96.871346,52.091164 98.729645,56.418262 95.665581,59.733212 
	C93.876190,61.669102 91.196144,63.429443 88.677483,63.856140 
	C86.296005,64.259590 83.601685,62.816425 81.044968,62.185463 
	C81.838493,59.747383 82.632011,57.309303 83.717056,54.657101 
z"/>
<path fill="#EAEAEA" opacity="1.000000" stroke="none" 
	d="
M141.584793,54.332466 
	C144.192856,56.573154 147.078217,59.136806 144.533340,61.957878 
	C143.005371,63.651684 139.279739,63.365578 136.538788,63.955406 
	C136.391129,63.987179 136.213272,63.898693 136.053680,63.851879 
	C131.250641,62.443005 127.901283,58.245499 128.967743,54.974083 
	C129.993805,51.826542 134.474167,51.060715 139.528473,53.187267 
	C140.140533,53.444786 140.712158,53.798424 141.584793,54.332466 
z"/>
<path fill="#E5E5E5" opacity="1.000000" stroke="none" 
	d="
M107.329819,46.990181 
	C108.249619,46.054123 109.022980,44.840149 109.707939,44.888126 
	C112.442627,45.079674 115.303993,45.297195 117.769760,46.334236 
	C118.475395,46.631012 118.731056,50.770077 117.931793,51.322483 
	C115.988304,52.665741 113.210175,53.721645 110.942665,53.448002 
	C107.962875,53.088398 106.035545,50.816025 107.329819,46.990181 
z"/>
</svg>