<svg version="1.1" id="Layer_1" xmlns="http://www.w3.org/2000/svg" xmlns:xlink="http://www.w3.org/1999/xlink" x="0px" y="0px"
	 width="100%" viewBox="0 0 250 250" enable-background="new 0 0 250 250" xml:space="preserve">
<path fill="#000000" opacity="1.000000" stroke="none" 
	d="
M121.000000,251.000000 
	C81.035660,251.000000 41.071316,251.000000 1.053487,251.000000 
	C1.053487,167.776642 1.053487,84.553238 1.053487,1.000000 
	C41.020290,1.000000 81.041489,1.000000 121.527657,1.387825 
	C115.047714,7.327719 107.979774,12.734282 101.192566,18.472881 
	C94.437355,24.184423 88.016090,30.289139 81.342560,36.099915 
	C78.514511,38.562347 75.374802,40.663006 72.450668,43.019810 
	C68.058846,46.559540 63.728809,50.176083 59.416134,53.811729 
	C59.363956,53.855721 59.891037,54.586845 60.165882,55.352081 
	C63.520416,59.353504 66.519043,63.397022 70.254044,66.575111 
	C83.539101,77.879272 97.004349,88.975761 110.553383,99.963432 
	C115.415192,103.906136 120.707985,107.317383 125.959961,111.296211 
	C127.322899,113.155266 128.314606,114.944839 129.776367,116.176590 
	C134.642807,120.277290 139.756607,124.083961 144.633255,128.173080 
	C157.695511,139.125870 170.643448,150.215424 183.747742,161.117310 
	C185.587265,162.647659 188.048843,163.430328 190.819717,164.869232 
	C190.819717,127.598763 190.819717,91.464363 190.868469,54.965675 
	C183.642853,48.598545 176.297089,42.679520 169.118134,36.564655 
	C163.967514,32.177475 159.177505,27.363197 153.979630,23.036152 
	C146.748917,17.016867 139.252014,11.318333 131.953262,5.379018 
	C130.445877,4.152392 129.308121,2.471514 128.000000,1.000001 
	C168.963806,1.000000 209.927628,1.000000 250.945709,1.000000 
	C250.945709,84.223557 250.945709,167.447159 250.945709,251.000000 
	C210.313034,251.000000 169.625168,251.000000 128.485275,250.632385 
	C132.632111,246.208893 137.209198,242.127899 141.839981,238.108810 
	C143.851974,236.362549 145.981720,234.752457 148.045273,233.064987 
	C153.368271,228.712036 158.693222,224.361374 163.999268,219.987808 
	C166.785461,217.691269 169.491074,215.295334 172.310730,213.041443 
	C175.269058,210.676712 178.399979,208.524063 181.310532,206.104401 
	C184.884491,203.133240 188.308289,199.981430 191.693390,196.587036 
	C189.752304,194.513031 188.041885,192.597992 186.053894,191.036270 
	C179.674469,186.024734 173.044250,181.323334 166.791580,176.162125 
	C160.530975,170.994400 154.695297,165.314865 148.505325,160.057556 
	C144.564484,156.710526 140.243942,153.814392 136.229187,150.549423 
	C132.465012,147.488235 128.879135,144.207794 125.053467,140.708878 
	C114.113770,131.287277 103.402596,122.099533 92.537758,113.097252 
	C82.110275,104.457344 71.523499,96.009689 60.618877,87.162903 
	C60.175823,88.659096 60.087105,88.818581 60.087246,88.977982 
	C60.118320,124.723228 60.155636,160.468460 60.148140,196.395905 
	C60.103519,196.578125 60.238255,196.928299 60.212265,197.279388 
	C60.727921,198.400696 61.135006,199.331940 61.832901,199.915207 
	C66.614738,203.911453 71.474915,207.813736 76.277229,211.785736 
	C87.786194,221.304855 99.363556,230.744415 110.726181,240.435501 
	C114.447365,243.609283 117.591805,247.459259 121.000000,251.000000 
M193.000000,128.500000 
	C193.000000,104.610916 193.000000,80.721840 193.000000,56.832756 
	C192.760773,56.835293 192.521545,56.837830 192.282318,56.840366 
	C192.282318,92.350624 192.282318,127.860886 192.282318,163.371140 
	C192.521545,163.372528 192.760773,163.373917 193.000000,163.375290 
	C193.000000,152.083527 193.000000,140.791763 193.000000,128.500000 
M58.000000,106.502007 
	C58.000000,136.053482 58.000000,165.604965 58.000000,195.156448 
	C58.242058,195.154465 58.484116,195.152481 58.726173,195.150513 
	C58.726173,159.979401 58.726173,124.808304 58.726173,89.637199 
	C58.484116,89.635376 58.242058,89.633545 58.000000,89.631721 
	C58.000000,94.922256 58.000000,100.212791 58.000000,106.502007 
z"/>
<path fill="#4C1CB2" opacity="1.000000" stroke="none" 
	d="
M191.796997,196.907715 
	C188.308289,199.981430 184.884491,203.133240 181.310532,206.104401 
	C178.399979,208.524063 175.269058,210.676712 172.310730,213.041443 
	C169.491074,215.295334 166.785461,217.691269 163.999268,219.987808 
	C158.693222,224.361374 153.368271,228.712036 148.045273,233.064987 
	C145.981720,234.752457 143.851974,236.362549 141.839981,238.108810 
	C137.209198,242.127899 132.632111,246.208893 128.016617,250.632385 
	C125.958336,251.000000 123.916664,251.000000 121.437500,251.000000 
	C117.591805,247.459259 114.447365,243.609283 110.726181,240.435501 
	C99.363556,230.744415 87.786194,221.304855 76.277229,211.785736 
	C71.474915,207.813736 66.614738,203.911453 61.832901,199.915207 
	C61.135006,199.331940 60.727921,198.400696 60.664711,197.271011 
	C104.694427,196.910278 148.245712,196.908997 191.796997,196.907715 
z"/>
<path fill="#FEF3CC" opacity="1.000000" stroke="none" 
	d="
M60.147732,54.997227 
	C59.891037,54.586845 59.363956,53.855721 59.416134,53.811729 
	C63.728809,50.176083 68.058846,46.559540 72.450668,43.019810 
	C75.374802,40.663006 78.514511,38.562347 81.342560,36.099915 
	C88.016090,30.289139 94.437355,24.184423 101.192566,18.472881 
	C107.979774,12.734282 115.047714,7.327719 121.996315,1.387825 
	C123.714355,1.000000 125.428719,1.000000 127.571533,1.000001 
	C129.308121,2.471514 130.445877,4.152392 131.953262,5.379018 
	C139.252014,11.318333 146.748917,17.016867 153.979630,23.036152 
	C159.177505,27.363197 163.967514,32.177475 169.118134,36.564655 
	C176.297089,42.679520 183.642853,48.598545 190.625381,54.958069 
	C190.005142,55.345268 189.699585,55.445477 188.944794,55.459610 
	C186.314468,55.216312 184.156311,55.053944 181.998016,55.052364 
	C141.381271,55.022617 100.764496,55.011909 60.147732,54.997227 
z"/>
<path fill="#D2BBC4" opacity="1.000000" stroke="none" 
	d="
M60.165882,55.352081 
	C100.764496,55.011909 141.381271,55.022617 181.998016,55.052364 
	C184.156311,55.053944 186.314468,55.216312 188.772415,55.718254 
	C188.410980,56.872578 187.831482,57.710762 187.076645,58.337921 
	C170.117249,72.428864 153.085968,86.433983 136.204422,100.617386 
	C132.472382,103.752930 129.257248,107.503708 125.804077,110.971191 
	C120.707985,107.317383 115.415192,103.906136 110.553383,99.963432 
	C97.004349,88.975761 83.539101,77.879272 70.254044,66.575111 
	C66.519043,63.397022 63.520416,59.353504 60.165882,55.352081 
z"/>
<path fill="#9493FF" opacity="1.000000" stroke="none" 
	d="
M125.959969,111.296219 
	C129.257248,107.503708 132.472382,103.752930 136.204422,100.617386 
	C153.085968,86.433983 170.117249,72.428864 187.076645,58.337921 
	C187.831482,57.710762 188.410980,56.872578 189.244522,55.874031 
	C189.699585,55.445477 190.005142,55.345268 190.576630,55.322361 
	C190.819717,91.464363 190.819717,127.598763 190.819717,164.869232 
	C188.048843,163.430328 185.587265,162.647659 183.747742,161.117310 
	C170.643448,150.215424 157.695511,139.125870 144.633255,128.173080 
	C139.756607,124.083961 134.642807,120.277290 129.776367,116.176590 
	C128.314606,114.944839 127.322899,113.155266 125.959969,111.296219 
z"/>
<path fill="#6646F9" opacity="1.000000" stroke="none" 
	d="
M191.693390,196.587036 
	C148.245712,196.908997 104.694427,196.910278 60.690701,196.919922 
	C60.238255,196.928299 60.103519,196.578125 60.471771,196.285217 
	C79.583626,180.462799 98.362465,164.975403 117.034752,149.360596 
	C120.006866,146.875168 122.500145,143.817123 125.214806,141.023819 
	C128.879135,144.207794 132.465012,147.488235 136.229187,150.549423 
	C140.243942,153.814392 144.564484,156.710526 148.505325,160.057556 
	C154.695297,165.314865 160.530975,170.994400 166.791580,176.162125 
	C173.044250,181.323334 179.674469,186.024734 186.053894,191.036270 
	C188.041885,192.597992 189.752304,194.513031 191.693390,196.587036 
z"/>
<path fill="#B689D3" opacity="1.000000" stroke="none" 
	d="
M125.053467,140.708878 
	C122.500145,143.817123 120.006866,146.875168 117.034752,149.360596 
	C98.362465,164.975403 79.583626,180.462799 60.516388,196.103012 
	C60.155636,160.468460 60.118320,124.723228 60.087246,88.977982 
	C60.087105,88.818581 60.175823,88.659096 60.618877,87.162903 
	C71.523499,96.009689 82.110275,104.457344 92.537758,113.097252 
	C103.402596,122.099533 114.113770,131.287277 125.053467,140.708878 
z"/>
<path fill="#AAAAFF" opacity="1.000000" stroke="none" 
	d="
M193.000000,129.000000 
	C193.000000,140.791763 193.000000,152.083527 193.000000,163.375290 
	C192.760773,163.373917 192.521545,163.372528 192.282318,163.371140 
	C192.282318,127.860886 192.282318,92.350624 192.282318,56.840366 
	C192.521545,56.837830 192.760773,56.835293 193.000000,56.832756 
	C193.000000,80.721840 193.000000,104.610916 193.000000,129.000000 
z"/>
<path fill="#AAAAAA" opacity="1.000000" stroke="none" 
	d="
M58.000000,106.002670 
	C58.000000,100.212791 58.000000,94.922256 58.000000,89.631721 
	C58.242058,89.633545 58.484116,89.635376 58.726173,89.637199 
	C58.726173,124.808304 58.726173,159.979401 58.726173,195.150513 
	C58.484116,195.152481 58.242058,195.154465 58.000000,195.156448 
	C58.000000,165.604965 58.000000,136.053482 58.000000,106.002670 
z"/>
</svg>